<svg viewBox="0 0 51 50" class="c-icons" xmlns="http://www.w3.org/2000/svg">
<path d="M49.3942 20.9829H41.8551V12.5922C41.8551 11.952 41.3884 11.4314 40.8144 11.4314H38.6676C38.0896 11.4314 37.6229 11.952 37.6229 12.5922V20.9829H30.0837C29.5097 20.9829 29.041 21.5047 29.041 22.146V24.5358C29.041 25.1771 29.5097 25.6966 30.0837 25.6966H37.6229V34.0918C37.6229 34.7331 38.0896 35.2526 38.6676 35.2526H40.8144C41.3884 35.2526 41.8551 34.7331 41.8551 34.0918V25.6955H49.3942C49.9683 25.6955 50.437 25.176 50.437 24.5347V22.1448C50.437 21.5035 49.9683 20.9829 49.3942 20.9829Z"/>
<path d="M24.059 28.3412C22.4733 27.091 21.0321 25.2576 21.0071 24.6945C21.0071 23.6688 21.0893 23.1783 23.1558 21.3862C25.8274 19.0578 27.2987 15.9965 27.2987 12.762C27.2987 9.82919 26.4938 7.22372 25.1239 5.39364H26.1867C26.4065 5.39364 26.6223 5.31766 26.7979 5.17465L29.7636 2.78258C30.1319 2.48874 30.2865 1.96474 30.146 1.48543C30.0044 1.00724 29.607 0.681 29.1544 0.681H15.8906C14.4394 0.681 12.9651 0.965903 11.5179 1.52007C6.68449 3.37585 3.30432 7.96112 3.30432 12.6682C3.30432 19.3372 7.94503 24.3917 14.1484 24.5503C14.0269 25.0788 13.9657 25.5994 13.9657 26.11C13.9657 27.1379 14.1995 28.1111 14.6813 29.0518C14.6251 29.0518 14.5709 29.0518 14.5107 29.0518C8.59738 29.0518 3.26016 32.2818 1.23387 37.0883C0.705968 38.3385 0.437 39.6022 0.437 40.8502C0.437 42.0635 0.717008 43.2311 1.26598 44.3282C2.53957 46.8644 5.27441 48.8319 8.97072 49.871C10.8786 50.4073 12.929 50.681 15.0576 50.681C16.9705 50.681 18.7941 50.4062 20.4802 49.8632C25.7371 48.1638 29.1363 43.8556 29.1363 38.8826C29.1353 34.1108 27.7574 31.2539 24.059 28.3412ZM7.30773 39.2648C7.30773 35.7934 11.269 32.7488 15.7843 32.7488H15.9057C16.8882 32.7622 17.8467 32.9231 18.7499 33.2315C19.06 33.4695 19.3591 33.6963 19.6462 33.9142C21.7377 35.5007 23.1197 36.5476 23.504 38.2279C23.5944 38.6514 23.6395 39.0748 23.6395 39.4849C23.6395 43.8076 20.7441 45.9985 15.0305 45.9985C10.6999 45.9985 7.30773 43.0422 7.30773 39.2648ZM11.4165 6.4651C12.1221 5.56793 13.0464 5.09421 14.0841 5.09421L14.2016 5.09645C17.1331 5.19253 19.9382 8.82924 20.4541 13.2033C20.7441 15.6524 20.2543 17.9551 19.1484 19.3584C18.4408 20.2578 17.5295 20.7315 16.4496 20.7315C16.4496 20.7315 16.4496 20.7315 16.4476 20.7315H16.4005C13.5291 20.6332 10.6638 16.8579 10.151 12.4894C9.86293 10.0471 10.3246 7.85163 11.4165 6.4651Z"/>
</svg>
