<svg viewBox="0 0 54 54" class="c-icons" xmlns="http://www.w3.org/2000/svg">
<path d="M9.14345 37.7148C5.20063 37.7148 2.00082 40.9133 2.00082 44.8578C2.00082 48.8018 5.20063 52 9.14345 52C13.0883 52 16.2869 48.8014 16.2869 44.8578C16.2869 40.9129 13.0883 37.7148 9.14345 37.7148Z"/>
<path d="M2 18.6667V28.1911C15.1296 28.1911 25.8109 38.8716 25.8109 52H35.3337C35.3337 33.6204 20.3808 18.6667 2 18.6667Z"/>
<path d="M2.00082 2V11.5236C24.3196 11.5236 42.478 29.6804 42.478 52H52C52 24.4308 29.5708 2 2.00082 2Z"/>
<path d="M9.14345 37.7148C5.20063 37.7148 2.00082 40.9133 2.00082 44.8578C2.00082 48.8018 5.20063 52 9.14345 52C13.0883 52 16.2869 48.8014 16.2869 44.8578C16.2869 40.9129 13.0883 37.7148 9.14345 37.7148Z"/>
<path d="M2 18.6667V28.1911C14.2334 28.1911 24.3383 37.4667 25.6594 49.353C28.9227 48.4087 31.9649 47.1818 34.7337 45.7242C31.7889 30.3358 18.2345 18.6667 2 18.6667Z"/>
<path d="M9.14345 37.7148C5.20063 37.7148 2.00082 40.9133 2.00082 44.8578C2.00082 47.1484 3.08399 49.1819 4.76109 50.4883C8.62732 49.0984 12.5164 47.1052 16.271 44.5449C16.106 40.7475 12.9828 37.7148 9.14345 37.7148Z"/>
<path d="M2 18.6667V28.1911C10.6454 28.1911 18.2263 32.8224 22.3985 39.7316C23.2083 39.0061 24.0096 38.2573 24.7946 37.4728C26.3511 35.9175 27.7923 34.3064 29.1219 32.6562C23.0694 24.197 13.1714 18.6667 2 18.6667Z"/>
<path d="M2.00082 2V11.5236C14.6758 11.5236 26.0028 17.3827 33.4314 26.5307C35.2926 23.4698 36.7803 20.3425 37.883 17.2315C28.7891 7.84845 16.0689 2 2.00082 2Z"/>
<path d="M12.5033 38.5555C11.5016 38.0211 10.3582 37.7148 9.14345 37.7148C5.20063 37.7148 2.00082 40.9133 2.00082 44.8578C2.00082 46.2285 2.39474 47.5048 3.06403 48.5933C6.67649 46.2326 9.88769 42.7994 12.5033 38.5555Z"/>
<path d="M18.5139 23.0625C13.6419 20.2712 8.0065 18.6667 2 18.6667V28.1911C7.05736 28.1911 11.7473 29.7806 15.607 32.4794C16.8303 29.5602 17.8128 26.4024 18.5139 23.0625Z"/>
<path d="M2.00082 11.5236C8.29533 11.5236 14.2554 12.9677 19.573 15.5406C19.6879 14.0305 19.7515 12.4997 19.7515 10.9444C19.7515 8.97927 19.6509 7.04839 19.4692 5.1554C14.0277 3.12024 8.1442 2 2.00082 2V11.5236Z"/>
<path d="M9.14345 37.7148C5.20063 37.7148 2.00082 40.9133 2.00082 44.8578C2.00082 48.8018 5.20063 52 9.14345 52C13.0883 52 16.2869 48.8014 16.2869 44.8578C16.2869 40.9129 13.0883 37.7148 9.14345 37.7148Z" stroke-width="3" stroke-miterlimit="10" stroke-linecap="round" stroke-linejoin="round"/>
<path d="M2 18.6667V28.1911C15.1296 28.1911 25.8109 38.8716 25.8109 52H35.3337C35.3337 33.6204 20.3808 18.6667 2 18.6667Z" stroke-width="3" stroke-miterlimit="10" stroke-linecap="round" stroke-linejoin="round"/>
<path d="M2.00082 2V11.5236C24.3196 11.5236 42.478 29.6804 42.478 52H52C52 24.4308 29.5708 2 2.00082 2Z" stroke-width="3" stroke-miterlimit="10" stroke-linecap="round" stroke-linejoin="round"/>
<path d="M9.14345 37.7148C5.20063 37.7148 2.00082 40.9133 2.00082 44.8578C2.00082 48.8018 5.20063 52 9.14345 52C13.0883 52 16.2869 48.8014 16.2869 44.8578C16.2869 40.9129 13.0883 37.7148 9.14345 37.7148Z" stroke-width="3" stroke-miterlimit="10" stroke-linecap="round" stroke-linejoin="round"/>
<path d="M34.7337 45.7242C31.7889 30.3358 18.2345 18.6667 2 18.6667V28.1911C14.2334 28.1911 24.3383 37.4667 25.6594 49.353" stroke-width="3" stroke-miterlimit="10" stroke-linecap="round" stroke-linejoin="round"/>
<path d="M48.293 33.1356C40.8315 14.8921 22.8979 2 2.00082 2V11.5236C20.7112 11.5236 36.4906 24.2862 41.106 41.5631" stroke-width="3" stroke-miterlimit="10" stroke-linecap="round" stroke-linejoin="round"/>
<path d="M16.271 44.5449C16.106 40.7475 12.9828 37.7143 9.14345 37.7143C5.20063 37.7143 2.00082 40.9129 2.00082 44.8574C2.00082 47.1479 3.08399 49.1815 4.76109 50.4879" stroke-width="3" stroke-miterlimit="10" stroke-linecap="round" stroke-linejoin="round"/>
<path d="M29.1219 32.6562C23.0694 24.197 13.1714 18.6667 2 18.6667V28.1911C10.6454 28.1911 18.2263 32.8224 22.3985 39.7316" stroke-width="3" stroke-miterlimit="10" stroke-linecap="round" stroke-linejoin="round"/>
<path d="M37.883 17.2315C28.7891 7.84845 16.0689 2 2.00082 2V11.5236C14.6758 11.5236 26.0028 17.3827 33.4314 26.5307" stroke-width="3" stroke-miterlimit="10" stroke-linecap="round" stroke-linejoin="round"/>
<path d="M12.5033 38.5555C11.5016 38.0211 10.3582 37.7148 9.14345 37.7148C5.20063 37.7148 2.00082 40.9133 2.00082 44.8578C2.00082 46.2285 2.39474 47.5048 3.06403 48.5933" stroke-width="3" stroke-miterlimit="10" stroke-linecap="round" stroke-linejoin="round"/>
<path d="M18.5139 23.0625C13.6419 20.2712 8.0065 18.6667 2 18.6667V28.1911C7.05736 28.1911 11.7473 29.7806 15.607 32.4794"  stroke-width="3" stroke-miterlimit="10" stroke-linecap="round" stroke-linejoin="round"/>
<path d="M19.4692 5.1554C14.0277 3.12024 8.1442 2 2.00082 2V11.5236C8.29533 11.5236 14.2554 12.9677 19.573 15.5406" stroke-width="3" stroke-miterlimit="10" stroke-linecap="round" stroke-linejoin="round"/>
</svg>
