<svg viewBox="0 0 64 64" class="c-icons" xmlns="http://www.w3.org/2000/svg">
<path d="M56.6 32.4H53.7C51.8 32.4 50.3 33.9 50.3 35.8V43.7C50.3 45.1 49.4 46.4 48 46.7C46.2 47 44.6 45.6 44.6 43.9V36.5C44.6 35.9 44 35.4 43.4 35.6L40.3 36.6C39.3 36.9 38.3 36.8 37.4 36.4L36.3 35.8C35.7 35.5 35 35.9 35 36.6V43.4C35 50.3 40.4 56.3 47.3 56.4C54.2 56.6 60 51 60 43.9V35.8C60 34 58.5 32.4 56.6 32.4Z"/>
<path d="M15.5 56.4C22.9 57 28.9 51.2 28.9 43.9L29.1 35.2V24.7C29.1 23.3 30 22 31.4 21.7C33.2 21.4 34.8 22.8 34.8 24.5V25.9C34.8 26.8 35.3 27.7 36.1 28.1L37.7 28.9C38.3 29.2 38.9 29.2 39.5 29L42.7 27.9C43.7 27.6 44.4 26.6 44.4 25.6V24.4C44.4 17.1 38.1 11.2 30.6 11.9C24.1 12.5 19.3 18.3 19.3 24.8V35.1V43.6C19.3 45 18.4 46.3 17 46.6C15.2 46.9 13.6 45.5 13.6 43.8V39.5C13.6 37.7 12.2 36.3 10.4 36.3H7.2C5.4 36.3 4 37.7 4 39.5V43.4C4 50.1 8.9 55.9 15.5 56.4Z"/>
</svg>
