<svg viewBox="0 0 32 26" class="c-icons" xmlns="http://www.w3.org/2000/svg">
<path d="M31.993 3.077C30.816 3.6 29.552 3.953 28.223 4.11C29.578 3.298 30.619 2.012 31.11 0.48C29.841 1.231 28.437 1.779 26.942 2.072C25.744 0.797 24.038 0 22.149 0C18.524 0 15.587 2.938 15.587 6.563C15.587 7.077 15.644 7.579 15.756 8.059C10.301 7.785 5.465 5.172 2.227 1.201C1.663 2.171 1.339 3.298 1.339 4.501C1.339 6.779 2.498 8.787 4.258 9.965C3.183 9.93 2.171 9.636 1.286 9.144C1.285 9.171 1.285 9.2 1.285 9.226C1.285 12.407 3.547 15.06 6.55 15.663C6 15.812 5.42 15.893 4.821 15.893C4.397 15.893 3.987 15.852 3.587 15.776C4.421 18.382 6.846 20.28 9.717 20.334C7.472 22.094 4.642 23.145 1.567 23.145C1.037 23.145 0.513999 23.114 0.000999451 23.053C2.905 24.913 6.355 26 10.062 26C22.134 26 28.737 15.999 28.737 7.325C28.737 7.041 28.729 6.757 28.717 6.475C30 5.55 31.112 4.395 31.993 3.077Z"/>
</svg>
